# This file uses centimeters as units for non-parametric coordinates.

mtllib mapPart7.mtl
g default
v 32.740714 -0.894331 1.607273
v 32.374367 7.229553 1.607273
v 32.469713 -0.906552 1.607273
v 32.103366 7.217332 1.607273
v 32.469713 -0.906552 -1.094293
v 32.103366 7.217332 -1.094293
v 32.740714 -0.894331 -1.094293
v 32.374367 7.229553 -1.094293
vt 0.375000 0.000000
vt 0.625000 0.000000
vt 0.375000 0.250000
vt 0.625000 0.250000
vt 0.375000 0.500000
vt 0.625000 0.500000
vt 0.375000 0.750000
vt 0.625000 0.750000
vt 0.375000 1.000000
vt 0.625000 1.000000
vt 0.875000 0.000000
vt 0.875000 0.250000
vt 0.125000 0.000000
vt 0.125000 0.250000
vn -0.000000 0.000000 -1.000000
vn -0.000000 0.000000 -1.000000
vn -0.000000 0.000000 -1.000000
vn -0.000000 0.000000 -1.000000
vn 0.998985 0.045049 0.000000
vn 0.998985 0.045049 0.000000
vn 0.998985 0.045049 0.000000
vn 0.998985 0.045049 0.000000
vn 0.000000 0.000000 1.000000
vn 0.000000 0.000000 1.000000
vn 0.000000 0.000000 1.000000
vn 0.000000 0.000000 1.000000
vn -0.998985 -0.045049 0.000000
vn -0.998985 -0.045049 0.000000
vn -0.998985 -0.045049 0.000000
vn -0.998985 -0.045049 0.000000
vn 0.045049 -0.998985 0.000000
vn 0.045049 -0.998985 0.000000
vn 0.045049 -0.998985 0.000000
vn 0.045049 -0.998985 0.000000
vn -0.045049 0.998985 0.000000
vn -0.045049 0.998985 0.000000
vn -0.045049 0.998985 0.000000
vn -0.045049 0.998985 0.000000
s 1
g pCube9
usemtl blinn2SG
f 1/1/1 3/3/2 2/2/3
f 3/3/2 4/4/4 2/2/3
s 2
f 3/3/5 5/5/6 4/4/7
f 5/5/6 6/6/8 4/4/7
s 3
f 5/5/9 7/7/10 6/6/11
f 7/7/10 8/8/12 6/6/11
s 4
f 7/7/13 1/9/14 8/8/15
f 1/9/14 2/10/16 8/8/15
s 5
f 2/2/17 4/4/18 8/11/19
f 4/4/18 6/12/20 8/11/19
s 6
f 7/13/21 5/14/22 1/1/23
f 5/14/22 3/3/24 1/1/23
